<?xml version="1.0" standalone="no"?>
<!DOCTYPE svg PUBLIC "-//W3C//DTD SVG 20010904//EN"
 "http://www.w3.org/TR/2001/REC-SVG-20010904/DTD/svg10.dtd">
<svg version="1.0" xmlns="http://www.w3.org/2000/svg"
 width="612.000000pt" height="612.000000pt" viewBox="0 0 612.000000 612.000000"
 preserveAspectRatio="xMidYMid meet">
<metadata>
Created by potrace 1.14, written by Peter Selinger 2001-2017
</metadata>
<g transform="translate(0.000000,612.000000) scale(0.100000,-0.100000)"
fill="#000000" stroke="none">
<path d="M3225 2763 c-26 -5 -67 -25 -82 -39 -7 -6 -34 -15 -60 -19 -26 -4
-93 -16 -148 -27 -55 -11 -109 -22 -119 -24 -11 -2 -65 -13 -120 -25 -75 -15
-115 -19 -156 -13 -116 16 -140 -10 -109 -118 8 -31 15 -38 34 -38 21 0 31
-11 23 -22 -1 -2 5 -14 12 -28 8 -14 15 -29 17 -35 12 -39 59 -282 98 -504 29
-172 51 -271 61 -282 9 -10 17 -26 18 -36 2 -12 13 -19 34 -21 39 -4 41 -17 5
-36 -45 -23 -79 -67 -102 -129 -26 -71 -26 -93 -2 -140 10 -21 17 -46 14 -57
-4 -15 3 -21 36 -30 23 -6 52 -8 64 -5 15 4 18 3 9 -3 -7 -5 -19 -30 -25 -55
-11 -42 -30 -63 -33 -37 -1 6 -2 15 -3 20 0 6 -9 10 -20 10 -11 0 -21 9 -24
22 -7 26 -16 20 -23 -16 -6 -36 21 -84 51 -92 40 -10 72 18 92 82 9 30 25 60
35 65 13 7 47 1 120 -23 57 -18 106 -33 111 -34 4 -1 9 -3 12 -4 3 -1 9 -3 14
-4 6 0 16 -7 22 -13 7 -7 19 -13 27 -13 13 0 127 -53 147 -69 5 -5 36 -18 68
-30 33 -12 74 -33 93 -47 19 -15 34 -24 34 -20 0 3 15 0 33 -7 17 -8 37 -12
44 -10 9 3 9 -5 3 -29 -4 -18 -11 -45 -14 -60 -5 -21 -12 -28 -31 -28 -30 0
-33 -16 -5 -25 21 -7 80 19 80 35 0 6 1 11 2 13 0 1 6 33 12 71 l12 69 74 28
c84 31 111 36 92 17 -17 -17 -15 -34 11 -73 26 -41 43 -47 79 -26 31 17 58 77
61 132 1 21 7 41 14 43 22 9 14 43 -15 68 -15 13 -60 43 -100 67 -43 25 -79
56 -88 72 -8 16 -24 34 -36 40 -13 7 -28 17 -35 23 -33 29 -41 34 -48 28 -3
-4 -5 19 -4 51 2 50 5 57 23 57 20 -1 20 -2 4 -14 -24 -18 -23 -23 7 -28 17
-4 26 0 30 12 4 12 13 15 36 12 24 -4 31 0 36 17 3 11 9 18 14 15 21 -12 50
-12 55 1 4 10 15 12 33 9 23 -5 29 -2 34 15 4 18 9 20 31 11 29 -11 32 -8 40
44 3 16 15 38 27 49 l22 21 -27 21 c-16 13 -26 31 -26 48 0 26 30 67 50 67 18
0 10 29 -14 52 -14 13 -26 36 -28 52 -3 26 1 31 28 39 38 11 61 51 42 74 -6 8
-11 30 -10 49 3 35 -2 42 -131 209 -13 17 -70 92 -126 168 -56 75 -106 137
-112 137 -29 0 -83 -37 -111 -76 -28 -40 -34 -43 -73 -42 -24 0 -47 -2 -53 -6
-5 -3 -15 0 -21 8 -8 10 -8 15 -1 18 13 4 -16 109 -34 120 -6 4 -8 8 -4 8 4 0
1 20 -6 44 -9 29 -10 49 -4 60 15 27 -42 129 -69 125 -5 -1 -17 -3 -28 -6z
m-14 -144 l30 -34 -28 -22 c-15 -12 -48 -27 -74 -32 -222 -48 -314 -75 -338
-99 -40 -41 -118 -57 -183 -38 -26 8 -58 57 -58 90 0 9 -7 16 -16 16 -8 0 -13
4 -9 10 3 5 12 7 20 3 9 -3 15 1 15 10 0 9 4 18 9 21 5 3 78 21 162 41 383 86
421 89 470 34z m83 -14 c-7 -17 -20 -20 -28 -6 -7 10 3 21 20 21 8 0 11 -6 8
-15z m50 -157 c6 -33 5 -38 -12 -38 -21 0 -32 18 -32 51 0 10 -6 19 -12 19 -9
0 -10 2 -2 8 6 4 15 18 19 31 l7 24 13 -29 c6 -16 15 -46 19 -66z m-186 20
c-2 -18 -10 -23 -32 -23 -37 0 -44 18 -14 33 37 17 50 14 46 -10z m49 8 c-5
-16 -24 -18 -30 -4 -3 9 3 14 14 14 11 0 18 -5 16 -10z m-311 -31 c-10 -8 -24
-11 -30 -8 -6 4 0 10 14 14 36 10 37 10 16 -6z m139 -5 c9 -14 -57 -41 -69
-29 -15 14 7 30 56 38 4 0 10 -4 13 -9z m45 0 c0 -5 -7 -10 -16 -10 -8 0 -12
5 -9 10 3 6 10 10 16 10 5 0 9 -4 9 -10z m138 -30 c2 -20 -4 -32 -18 -40 -15
-8 -20 -8 -21 2 0 7 -2 22 -4 32 -5 26 2 36 23 36 12 0 18 -9 20 -30z m-58
-16 l0 -35 -30 16 c-45 23 -39 49 11 52 15 1 19 -5 19 -33z m-262 10 c-2 -10
-21 -22 -46 -30 -38 -11 -43 -10 -40 3 2 9 21 22 43 29 22 6 41 12 43 13 2 1
2 -6 0 -15z m52 7 c0 -16 -28 -20 -34 -5 -4 9 1 14 14 14 11 0 20 -4 20 -9z
m291 -34 c-8 -8 -11 -3 -11 19 1 25 2 27 11 11 8 -14 8 -22 0 -30z m-672 12
c11 -18 11 -23 0 -30 -15 -9 -34 15 -24 30 3 5 -1 12 -7 14 -9 4 -8 6 2 6 8 1
21 -9 29 -20z m506 11 c-3 -5 -11 -10 -16 -10 -6 0 -7 5 -4 10 3 6 11 10 16
10 6 0 7 -4 4 -10z m-52 -17 c-7 -2 -13 -11 -13 -19 0 -9 5 -12 10 -9 6 3 10
-3 10 -13 0 -11 -7 -23 -16 -26 -12 -5 -15 -2 -10 10 5 13 2 15 -14 11 -16 -4
-20 0 -20 17 0 29 8 36 39 35 14 0 20 -3 14 -6z m-233 -33 c0 -17 -9 -40 -20
-52 -11 -12 -20 -29 -20 -39 0 -14 -26 -28 -52 -29 -11 0 -41 110 -33 118 9
10 76 30 103 31 18 1 22 -4 22 -29z m168 -12 c-4 -53 -28 -58 -42 -10 -7 26
-6 36 5 43 30 19 40 10 37 -33z m129 26 c2 -7 -4 -19 -13 -29 -20 -19 -35 -5
-26 27 5 20 33 21 39 2z m-441 -67 c13 -59 14 -67 5 -67 -10 0 -41 88 -41 117
0 15 2 14 16 -5 8 -12 17 -32 20 -45z m254 43 c0 -17 -3 -19 -18 -11 -10 5
-27 8 -38 7 -10 -2 -23 -1 -28 2 -13 7 22 20 57 21 21 1 27 -4 27 -19z m352
-7 c3 -50 -3 -106 -12 -122 -6 -11 -9 11 -10 67 0 48 4 82 10 82 6 0 11 -12
12 -27z m-98 -87 c7 -50 12 -95 9 -102 -6 -17 -43 -25 -48 -11 -11 36 -14 171
-4 183 6 8 8 14 3 14 -5 0 -2 5 6 10 18 11 16 16 34 -94z m66 5 c0 -76 -3
-100 -14 -104 -18 -7 -25 21 -27 110 -2 75 3 93 27 93 11 0 14 -19 14 -99z
m-610 44 c20 -48 19 -52 -6 -47 -28 5 -29 7 -38 49 -6 25 -4 32 11 35 10 2 19
-1 21 -7 2 -5 7 -19 12 -30z m289 10 c10 -10 -30 -35 -56 -35 -18 0 -23 5 -23
26 0 25 2 26 36 21 20 -3 39 -9 43 -12z m190 -89 c-1 -80 -4 -94 -18 -92 -13
2 -17 19 -19 94 -3 88 -2 92 18 92 20 0 21 -5 19 -94z m-58 32 c1 -29 2 -70 3
-90 3 -43 -9 -71 -17 -42 -3 11 -9 44 -12 74 -4 30 -9 64 -11 74 -4 24 3 36
22 36 10 0 14 -14 15 -52z m-233 25 c-4 -24 -24 -27 -24 -3 0 11 6 20 14 20 7
0 12 -8 10 -17z m161 -50 c-1 -32 -4 -47 -6 -33 -2 14 -8 40 -13 58 -7 25 -5
32 6 32 11 0 14 -14 13 -57z m-54 -42 c2 -44 0 -83 -5 -86 -5 -3 -19 0 -32 7
-13 7 -24 13 -25 13 0 0 -4 30 -8 66 l-7 66 34 10 c18 5 35 9 36 7 2 -1 5 -39
7 -83z m-95 35 c0 -13 3 -38 6 -55 6 -30 5 -31 -17 -23 -18 7 -26 20 -30 48
-4 25 -3 42 5 46 21 14 36 8 36 -16z m145 -147 c6 -19 5 -20 -8 -8 -8 8 -13
17 -10 22 2 4 0 7 -5 7 -5 0 -10 20 -10 45 -1 25 -3 49 -3 53 -1 4 0 18 1 32
1 14 8 -10 15 -52 8 -43 17 -87 20 -99z m-205 126 c0 -28 -8 -31 -35 -12 -21
16 -12 37 16 37 14 0 19 -7 19 -25z m246 -92 c-12 -30 -22 -9 -20 45 1 31 2
59 4 62 5 11 21 -94 16 -107z m-326 31 c7 -20 16 -31 22 -28 7 5 7 1 1 -11 -7
-11 -6 -29 3 -54 24 -67 17 -73 -47 -43 -35 16 -38 21 -49 82 -6 36 -14 77
-16 92 l-5 27 40 -16 c31 -12 43 -24 51 -49z m19 -4 c0 -10 -3 -8 -9 5 -12 27
-12 43 0 25 5 -8 9 -22 9 -30z m62 -16 c2 2 5 -18 7 -44 3 -64 -12 -71 -28
-12 -6 26 -14 53 -16 60 -3 9 1 10 15 3 10 -6 20 -9 22 -7z m62 -37 c22 -8 22
-33 1 -41 -21 -8 -20 -9 -28 34 -4 19 -4 30 1 24 4 -6 16 -13 26 -17z m73 -46
c-4 -5 -1 -11 5 -13 6 -2 13 -17 14 -33 3 -28 3 -29 -10 -11 -8 10 -12 23 -9
28 3 4 -2 11 -11 14 -13 6 -14 8 -3 15 17 11 20 11 14 0z m-45 -43 c0 -18 3
-45 5 -60 3 -16 1 -28 -4 -28 -18 0 -32 27 -38 74 -6 42 -5 46 15 46 17 0 21
-6 22 -32z m-65 -45 c-10 -10 -26 9 -26 31 0 37 14 40 23 6 4 -18 6 -34 3 -37z
m-101 24 c38 -21 40 -26 52 -92 7 -39 15 -80 18 -92 7 -28 -10 -30 -59 -7 -32
16 -35 21 -54 108 -25 118 -23 121 43 83z m395 -27 c3 -3 19 -12 35 -20 20
-10 30 -23 31 -40 1 -14 4 -46 7 -72 2 -26 2 -50 -1 -53 -11 -11 -62 82 -73
135 -10 46 -13 51 -19 30 l-6 -25 -17 31 c-9 17 -14 34 -11 37 6 5 42 -11 54
-23z m-100 -25 c13 -14 21 -25 17 -25 -4 0 -3 -11 2 -23 13 -35 0 -49 -25 -29
-14 11 -24 33 -27 60 -6 48 0 52 33 17z m-45 -16 c12 -54 -17 -51 -30 4 -6 20
-4 27 8 27 9 0 18 -13 22 -31z m-174 -1 c0 -13 2 -30 4 -38 2 -8 6 -24 9 -35
15 -61 18 -85 9 -85 -5 0 -16 41 -24 90 -9 50 -12 90 -7 90 4 0 8 -10 9 -22z
m39 -4 c0 -8 -5 -12 -10 -9 -6 4 -8 11 -5 16 9 14 15 11 15 -7z m65 -35 c4
-11 0 -26 -9 -35 -9 -8 -16 -11 -16 -6 0 5 -3 24 -6 41 -5 26 -4 30 9 25 9 -3
19 -14 22 -25z m355 -38 c5 -20 10 -53 10 -73 0 -36 -1 -37 -24 -27 -27 13
-32 25 -41 112 l-7 59 26 -17 c14 -10 30 -33 36 -54z m-175 18 c15 -27 14 -29
-4 -29 -14 0 -20 9 -23 34 -4 40 5 38 27 -5z m875 2 c0 -5 -6 -11 -12 -14 -10
-4 -10 -7 0 -18 24 -25 9 -120 -15 -95 -10 9 -11 90 -2 114 8 22 29 31 29 13z
m-970 -38 c0 -33 -24 -25 -28 10 -3 21 0 26 12 21 9 -3 16 -17 16 -31z m334 1
c17 -24 32 -134 19 -134 -33 0 -62 61 -63 132 0 31 23 32 44 2z m-296 -2 c2
-7 -3 -12 -12 -12 -9 0 -16 7 -16 16 0 17 22 14 28 -4z m873 -10 c2 -36 -3
-87 -9 -94 -20 -21 -49 60 -35 97 6 18 43 15 44 -3z m-984 -24 c-3 -8 -6 -5
-6 6 -1 11 2 17 5 13 3 -3 4 -12 1 -19z m200 -56 c6 -53 -7 -71 -25 -34 -14
26 -24 91 -16 103 12 21 34 -16 41 -69z m-53 26 c3 -17 6 -44 6 -60 0 -25 -4
-29 -22 -26 -19 2 -24 12 -31 57 -7 40 -6 56 4 61 20 13 36 1 43 -32z m358 20
c-2 -10 -6 -18 -8 -18 -2 0 -8 8 -13 18 -7 14 -6 18 8 18 12 0 17 -6 13 -18z
m-41 -5 c10 -11 10 -14 2 -9 -7 4 -13 5 -13 2 0 -14 26 -63 42 -79 28 -27 21
-39 -12 -22 -21 11 -30 23 -32 43 0 15 -2 39 -3 55 -2 32 -2 32 16 10z m459
-15 c0 -26 -9 -19 -15 11 -2 12 0 19 6 16 5 -4 9 -16 9 -27z m-1070 4 c25 -12
36 -25 38 -45 4 -30 -12 -36 -26 -11 -7 12 -11 13 -16 5 -4 -7 5 -24 23 -40
17 -16 27 -32 23 -36 -4 -5 -2 -5 5 -1 6 3 14 2 17 -2 9 -14 -17 -40 -46 -47
-32 -8 -53 19 -63 80 -3 22 -8 57 -12 78 -6 43 2 46 57 19z m231 -4 c0 -13 3
-35 5 -50 3 -16 0 -28 -5 -28 -6 0 -13 12 -17 28 -3 15 -8 33 -10 40 -2 8 -2
18 2 23 10 17 24 9 25 -13z m454 2 c3 -5 1 -10 -4 -10 -6 0 -11 5 -11 10 0 6
2 10 4 10 3 0 8 -4 11 -10z m-492 -30 c3 -11 1 -20 -4 -20 -5 0 -9 9 -9 20 0
11 2 20 4 20 2 0 6 -9 9 -20z m-101 -55 c8 -30 12 -55 7 -55 -14 0 -36 43 -43
82 -11 60 18 38 36 -27z m78 44 c0 -11 -3 -11 -24 -3 -23 9 -20 23 4 17 11 -3
20 -9 20 -14z m222 -11 c-9 -9 -12 -7 -12 12 0 19 3 21 12 12 9 -9 9 -15 0
-24z m120 -12 c7 -11 10 -35 13 -103 1 -34 -17 -50 -33 -30 -15 20 -22 47 -11
47 12 0 4 49 -11 64 -5 5 -10 18 -10 29 0 14 5 17 23 11 12 -4 25 -12 29 -18z
m551 9 c1 -5 -8 -11 -20 -13 -15 -2 -23 2 -23 11 0 16 39 18 43 2z m127 -16
c0 -18 -2 -19 -15 -9 -15 12 -12 30 6 30 5 0 9 -10 9 -21z m-1012 -32 c4 -37
-13 -34 -27 4 -9 27 -8 30 7 27 10 -2 18 -14 20 -31z m939 25 c7 -4 14 -33 15
-64 2 -31 2 -55 -1 -52 -2 2 -10 -1 -18 -8 -18 -15 -20 -11 -27 55 -8 72 0 89
31 69z m-530 -16 c1 -1 3 -15 5 -31 2 -20 -1 -29 -10 -27 -9 1 -7 -6 5 -25 9
-16 13 -25 9 -21 -5 4 -17 3 -26 -2 -15 -8 -18 -6 -15 8 2 9 4 18 5 20 8 8 4
31 -7 54 -7 15 -13 30 -13 33 0 5 38 -2 47 -9z m479 -62 c-4 -14 -14 -24 -24
-24 -13 0 -17 10 -19 44 -2 39 0 45 20 48 24 3 34 -24 23 -68z m-636 52 c0 -9
-30 -14 -35 -6 -4 6 3 10 14 10 12 0 21 -2 21 -4z m575 -35 c-3 -12 -14 -21
-24 -21 -28 0 -30 9 -7 35 23 27 42 19 31 -14z m-625 25 c0 -3 -4 -8 -10 -11
-5 -3 -10 -1 -10 4 0 6 5 11 10 11 6 0 10 -2 10 -4z m811 -3 c4 -39 4 -63 -1
-64 -3 0 -12 -2 -20 -4 -11 -2 -17 6 -18 27 -1 16 0 33 3 39 7 11 35 12 36 2z
m-881 -23 c0 -5 -10 -10 -22 -9 -22 0 -22 1 -3 9 11 5 21 9 23 9 1 1 2 -3 2
-9z m-190 -55 c0 -1 -6 -2 -13 -2 -8 0 -19 14 -25 31 l-12 31 25 -29 c14 -16
25 -30 25 -31z m686 29 c10 -8 14 -13 7 -10 -6 4 -14 2 -18 -4 -12 -19 -33
-11 -28 10 6 24 13 25 39 4z m57 9 c-7 -2 -19 -2 -25 0 -7 3 -2 5 12 5 14 0
19 -2 13 -5z m52 -7 c7 3 16 1 19 -4 3 -5 -3 -12 -14 -15 -11 -3 -20 -1 -20 5
0 5 -4 7 -8 4 -5 -3 -9 2 -9 10 0 9 4 11 10 5 5 -5 15 -7 22 -5z m-678 -2 c-3
-3 -12 -4 -19 -1 -8 3 -5 6 6 6 11 1 17 -2 13 -5z m453 -15 c0 -4 -9 -7 -19
-6 -11 0 -18 4 -16 7 6 9 35 8 35 -1z m301 -9 c6 0 7 -4 4 -10 -10 -16 -45
-12 -45 6 0 11 5 14 16 10 9 -3 20 -6 25 -6z m-661 -14 c0 -2 -7 -7 -16 -10
-8 -3 -12 -2 -9 4 6 10 25 14 25 6z m720 -17 c0 -5 -7 -9 -15 -9 -8 0 -15 7
-15 15 0 9 6 12 15 9 8 -4 15 -10 15 -15z m130 6 c-7 -9 -15 -13 -19 -10 -3 3
1 10 9 15 21 14 24 12 10 -5z m-1115 -5 c3 -5 1 -10 -4 -10 -6 0 -11 5 -11 10
0 6 2 10 4 10 3 0 8 -4 11 -10z m335 0 c0 -5 -12 -10 -27 -10 -22 0 -25 2 -13
10 20 13 40 13 40 0z m193 -7 c-3 -7 -9 -10 -14 -7 -14 8 -11 21 5 21 8 0 12
-6 9 -14z m317 5 c0 -4 -4 -8 -9 -8 -6 0 -12 4 -15 8 -3 5 1 9 9 9 8 0 15 -4
15 -9z m-80 -32 c-14 -14 -24 0 -16 21 6 15 8 15 16 3 6 -9 5 -19 0 -24z m285
12 c6 -4 2 -8 -7 -8 -10 0 -18 7 -18 17 0 9 3 12 8 7 4 -5 12 -12 17 -16z
m-645 2 c0 -5 -9 -10 -21 -10 -11 0 -17 5 -14 10 3 6 13 10 21 10 8 0 14 -4
14 -10z m500 0 c0 -5 -5 -10 -11 -10 -5 0 -7 5 -4 10 3 6 8 10 11 10 2 0 4 -4
4 -10z m-423 -26 c-9 -9 -28 6 -21 18 4 6 10 6 17 -1 6 -6 8 -13 4 -17z m-245
-9 c116 -29 122 -29 112 -12 -4 7 -3 9 2 4 17 -16 9 -32 -33 -64 -27 -22 -52
-54 -72 -95 -32 -66 -46 -128 -30 -128 6 0 7 -4 4 -10 -3 -5 -1 -19 5 -30 9
-17 8 -19 -7 -17 -10 2 -30 9 -44 15 -15 6 -44 14 -65 18 -22 3 -64 16 -94 29
-30 12 -76 30 -102 39 -38 14 -48 22 -48 40 0 41 30 125 56 156 14 16 22 30
17 30 -26 1 36 22 73 25 24 2 51 8 61 14 27 16 54 13 165 -14z m92 5 c-22 -9
-29 -6 -20 9 4 6 14 7 23 4 15 -6 14 -7 -3 -13z m386 -5 c0 -3 -16 -5 -35 -5
-36 0 -48 16 -17 23 16 3 52 -9 52 -18z m124 4 c-3 -5 -10 -7 -15 -3 -5 3 -7
10 -3 15 3 5 10 7 15 3 5 -3 7 -10 3 -15z m130 15 c18 -7 12 -24 -10 -24 -8 0
-14 7 -14 15 0 17 2 18 24 9z m-569 -24 c3 -5 2 -10 -4 -10 -5 0 -13 5 -16 10
-3 6 -2 10 4 10 5 0 13 -4 16 -10z m500 -17 c-21 -15 -30 -10 -22 11 4 10 13
13 23 9 15 -6 15 -7 -1 -20z m-140 7 c3 -5 1 -10 -4 -10 -6 0 -11 5 -11 10 0
6 2 10 4 10 3 0 8 -4 11 -10z m-28 -6 c-3 -3 -12 -4 -19 -1 -8 3 -5 6 6 6 11
1 17 -2 13 -5z m2 -30 c16 10 29 -9 15 -22 -9 -8 -14 -9 -14 -2 0 6 -4 8 -10
5 -6 -3 -10 4 -9 17 0 13 3 17 6 10 2 -6 8 -10 12 -8z m-238 -21 c13 -13 18
-90 8 -120 -12 -34 19 -66 54 -58 32 8 67 49 67 79 1 56 11 53 213 -73 107
-67 200 -128 206 -135 9 -11 -4 -19 -66 -41 -43 -15 -122 -45 -176 -66 -53
-22 -105 -39 -115 -39 -9 1 -69 22 -132 48 -84 35 -114 52 -112 63 1 12 -16
23 -60 38 -101 35 -136 53 -143 69 -11 30 37 134 89 189 12 12 29 31 38 42 14
16 27 20 68 17 28 -1 55 -7 61 -13z m272 -45 c4 -12 4 -24 2 -26 -6 -7 -24 8
-35 29 -9 16 -7 19 8 19 12 0 22 -9 25 -22z m-498 -256 c-3 -3 -11 0 -18 7 -9
10 -8 11 6 5 10 -3 15 -9 12 -12z m40 -12 c3 -6 -1 -7 -9 -4 -18 7 -21 14 -7
14 6 0 13 -4 16 -10z m55 -15 c27 -15 20 -19 -17 -9 -13 4 -23 10 -23 15 0 12
11 11 40 -6z m690 -170 c-9 -27 -17 -35 -35 -35 -13 0 -27 5 -30 10 -3 6 3 10
14 10 13 0 21 8 23 23 2 12 9 21 16 20 6 -2 12 5 13 15 0 10 3 12 6 5 2 -7 -1
-29 -7 -48z"/>
<path d="M3435 839 c-19 -31 33 -95 57 -71 12 12 -20 61 -40 62 -7 0 -10 5 -7
10 3 6 4 10 1 10 -3 0 -8 -5 -11 -11z"/>
</g>
</svg>
